<svg width="12" height="18" viewBox="0 0 12 18" fill="none" xmlns="http://www.w3.org/2000/svg">
<path d="M5.95 8.575C5.38641 8.575 4.84591 8.35111 4.4474 7.9526C4.04888 7.55409 3.825 7.01358 3.825 6.45C3.825 5.88641 4.04888 5.34591 4.4474 4.9474C4.84591 4.54888 5.38641 4.325 5.95 4.325C6.51358 4.325 7.05409 4.54888 7.4526 4.9474C7.85112 5.34591 8.075 5.88641 8.075 6.45C8.075 6.72906 8.02003 7.00538 7.91324 7.2632C7.80645 7.52102 7.64993 7.75528 7.4526 7.9526C7.25528 8.14992 7.02102 8.30645 6.7632 8.41324C6.50538 8.52003 6.22906 8.575 5.95 8.575ZM5.95 0.5C4.37196 0.5 2.85856 1.12687 1.74271 2.24271C0.626873 3.35856 0 4.87196 0 6.45C0 10.9125 5.95 17.5 5.95 17.5C5.95 17.5 11.9 10.9125 11.9 6.45C11.9 4.87196 11.2731 3.35856 10.1573 2.24271C9.04144 1.12687 7.52804 0.5 5.95 0.5Z" fill="#F1F3DB"/>
</svg>
