<svg width="17" height="14" viewBox="0 0 17 14" fill="none" xmlns="http://www.w3.org/2000/svg">
<path d="M1.7 13.6C1.2325 13.6 0.832151 13.4334 0.498951 13.1002C0.165751 12.767 -0.000565223 12.3669 1.44312e-06 11.9V1.7C1.44312e-06 1.2325 0.166601 0.832151 0.499801 0.498951C0.833001 0.165751 1.23307 -0.000565223 1.7 1.44312e-06H15.3C15.7675 1.44312e-06 16.1678 0.166601 16.501 0.499801C16.8342 0.833001 17.0006 1.23307 17 1.7V11.9C17 12.3675 16.8334 12.7678 16.5002 13.101C16.167 13.4342 15.7669 13.6006 15.3 13.6H1.7ZM8.5 7.65L1.7 3.4V11.9H15.3V3.4L8.5 7.65ZM8.5 5.95L15.3 1.7H1.7L8.5 5.95ZM1.7 3.4V1.7V11.9V3.4Z" fill="#F1F3DB"/>
</svg>
