<svg width="16" height="16" viewBox="0 0 16 16" fill="none" xmlns="http://www.w3.org/2000/svg">
<path d="M3.077 7.22306C4.301 9.62856 6.273 11.5921 8.6785 12.8246L10.5485 10.9546C10.778 10.7251 11.118 10.6486 11.4155 10.7506C12.3675 11.0651 13.396 11.2351 14.45 11.2351C14.9175 11.2351 15.3 11.6176 15.3 12.0851V15.0516C15.3 15.5191 14.9175 15.9016 14.45 15.9016C6.4685 15.9016 0 9.43306 0 1.45156C0 0.984062 0.3825 0.601562 0.85 0.601562H3.825C4.2925 0.601562 4.675 0.984062 4.675 1.45156C4.675 2.51406 4.845 3.53406 5.1595 4.48606C5.253 4.78356 5.185 5.11506 4.947 5.35306L3.077 7.22306Z" fill="#F1F3DB"/>
</svg>
