<svg width="13" height="12" viewBox="0 0 13 12" fill="none" xmlns="http://www.w3.org/2000/svg">
<path d="M11 10.5L8 7.5M2 5C2 5.45963 2.09053 5.91475 2.26642 6.33939C2.44231 6.76403 2.70012 7.14987 3.02513 7.47487C3.35013 7.79988 3.73597 8.05769 4.16061 8.23358C4.58525 8.40947 5.04037 8.5 5.5 8.5C5.95963 8.5 6.41475 8.40947 6.83939 8.23358C7.26403 8.05769 7.64987 7.79988 7.97487 7.47487C8.29988 7.14987 8.55769 6.76403 8.73358 6.33939C8.90947 5.91475 9 5.45963 9 5C9 4.54037 8.90947 4.08525 8.73358 3.66061C8.55769 3.23597 8.29988 2.85013 7.97487 2.52513C7.64987 2.20012 7.26403 1.94231 6.83939 1.76642C6.41475 1.59053 5.95963 1.5 5.5 1.5C5.04037 1.5 4.58525 1.59053 4.16061 1.76642C3.73597 1.94231 3.35013 2.20012 3.02513 2.52513C2.70012 2.85013 2.44231 3.23597 2.26642 3.66061C2.09053 4.08525 2 4.54037 2 5Z" stroke="#496976" stroke-linecap="round" stroke-linejoin="round"/>
</svg>
