<svg width="21" height="21" viewBox="0 0 21 21" fill="none" xmlns="http://www.w3.org/2000/svg">
<g clip-path="url(#clip0_231_9437)">
<path d="M17.0293 10.6206C17.147 10.915 17.1824 11.2359 17.1319 11.5489C17.0813 11.8619 16.9467 12.1553 16.7423 12.3977L16.6417 12.508L12.5082 16.6415C12.284 16.8659 12.0029 17.0252 11.6951 17.1023C11.3873 17.1794 11.0644 17.1713 10.7608 17.079L10.6208 17.0291L5.44696 14.9597C5.15728 14.8437 4.90391 14.6523 4.71312 14.4053C4.52234 14.1584 4.4011 13.8649 4.36196 13.5553L3.80634 9.11121C3.79321 8.99746 3.77659 8.87671 3.75734 8.75246L3.69434 8.36396L3.65759 8.16096L3.53509 7.52834L3.44234 7.09521L3.29621 6.44334L3.09671 5.60771L2.75021 4.24971L2.59796 3.68446C2.55874 3.54181 2.55595 3.3916 2.58986 3.2476C2.62377 3.1036 2.69329 2.97041 2.79204 2.86025C2.89079 2.75009 3.01561 2.66649 3.15507 2.6171C3.29452 2.56772 3.44414 2.55413 3.59021 2.57759L3.71796 2.60734L4.69096 2.86546L5.60796 3.09646L6.44359 3.29596L7.09546 3.44209L7.52946 3.53396L8.16121 3.65734L8.56109 3.72734L8.93559 3.78334L13.5556 4.36084C13.8407 4.39714 14.1125 4.50315 14.347 4.6695C14.5814 4.83586 14.7712 5.05742 14.8996 5.31459L14.96 5.44671L17.0293 10.6206ZM15.4045 11.2698L13.3351 6.09684L9.24709 5.58584L8.90059 5.54384C8.25688 5.45806 7.617 5.34568 6.98259 5.20696L6.29484 5.05734L9.17184 7.93434C9.54395 7.83459 9.93857 7.86043 10.2945 8.00783C10.6504 8.15524 10.9478 8.41597 11.1404 8.7496C11.3331 9.08323 11.4102 9.4711 11.3599 9.85305C11.3097 10.235 11.1348 10.5897 10.8624 10.8621C10.5899 11.1345 10.2353 11.3094 9.8533 11.3597C9.47135 11.41 9.08348 11.3328 8.74985 11.1402C8.41622 10.9475 8.15549 10.6502 8.00808 10.2943C7.86068 9.93832 7.83484 9.5437 7.93459 9.17159L5.05759 6.29459L5.13371 6.63759L5.27809 7.32359C5.36561 7.75106 5.44147 8.18085 5.50559 8.61246L6.09709 13.3348L11.2701 15.4042L15.4045 11.2698ZM18.2867 13.3375C18.4375 13.488 18.5282 13.6884 18.5417 13.9011C18.5552 14.1137 18.4907 14.324 18.3602 14.4925L18.2867 14.5747L14.575 18.2865C14.4179 18.4451 14.2061 18.5376 13.983 18.5452C13.7599 18.5528 13.5423 18.4748 13.3748 18.3272C13.2073 18.1796 13.1026 17.9736 13.082 17.7513C13.0615 17.529 13.1266 17.3073 13.2642 17.1315L13.3377 17.0492L17.0495 13.3375C17.2135 13.1734 17.4361 13.0813 17.6681 13.0813C17.9001 13.0813 18.1226 13.1734 18.2867 13.3375Z" fill="#F1F3DB"/>
</g>
<defs>
<clipPath id="clip0_231_9437">
<rect width="21" height="21" fill="white" transform="translate(21) rotate(90)"/>
</clipPath>
</defs>
</svg>
